<svg enable-background="new 0 0 60 60" viewBox="0 0 60 60" xmlns="http://www.w3.org/2000/svg"><path d="m49.416 10.199c-.572-.759-1.405-1.25-2.346-1.382l-9.352-1.314.417-2.971c.111-.791-.093-1.58-.577-2.222s-1.185-1.056-1.977-1.167l-7.92-1.113c-1.657-.234-3.163.944-3.388 2.553l-.418 2.971-9.351-1.314c-1.964-.278-3.75 1.118-4.017 3.026l-.619 4.401 8.353 1.174-5.855 5.855c-.09.09-.142.199-.201.305h-1.032v37.271c0 2.057 1.673 3.729 3.729 3.729h28.541c2.057 0 3.729-1.673 3.729-3.729v-37.272h-5v-2.799l7.347 1.032.618-4.399c.132-.941-.109-1.877-.681-2.635zm-23.163-7.338c.075-.535.571-.932 1.129-.851l7.922 1.113c.262.037.496.176.658.391.162.214.23.477.193.738l-.417 2.971-9.903-1.392zm-11.363 16.139 3.586-3.586 3.585 3.586zm11.242 0v-1h6v1zm11 0v-1h3v1zm-2-3v3h-1v-3h-10v2.243l-5.319-5.319 21.889 3.076z"/></svg>